<?xml version="1.0" encoding="utf-8"?>
<!-- Generator: Adobe Illustrator 17.1.0, SVG Export Plug-In . SVG Version: 6.00 Build 0)  -->
<!DOCTYPE svg PUBLIC "-//W3C//DTD SVG 1.1//EN" "http://www.w3.org/Graphics/SVG/1.1/DTD/svg11.dtd">
<svg version="1.1" id="Layer_1" xmlns="http://www.w3.org/2000/svg" xmlns:xlink="http://www.w3.org/1999/xlink" x="0px" y="0px"
	 viewBox="0 0 960 560" enable-background="new 0 0 960 560" xml:space="preserve">
<g>
	<rect x="479.2" y="281.5" fill="#5A387A" width="19.9" height="19.3"/>
	<rect x="459.4" y="261.5" fill="#2F3083" width="19.8" height="19.9"/>
	<rect x="460.4" y="281.5" fill="#3F793B" width="18.9" height="19.3"/>
	<rect x="479.2" y="261.5" fill="#0D5978" width="19.9" height="19.9"/>
	<g>
		<defs>
			<rect id="SVGID_1_" x="456" y="256.1" width="47.6" height="47.6"/>
		</defs>
		<clipPath id="SVGID_2_">
			<use xlink:href="#SVGID_1_"  overflow="visible"/>
		</clipPath>
		<path clip-path="url(#SVGID_2_)" fill="#231F20" d="M479.2,281.4c1.9-0.1,3.4-1,4.4-2.5c1-1.5,1.5-3.6,1.5-6.1h-6V281.4z"/>
		<path clip-path="url(#SVGID_2_)" fill="#231F20" d="M485.2,298.6c-0.3-6.2-2.3-9.3-6-9.4v9.4h-11.4v-25.8h-5.9V263h23.3v9.8h11.6
			c0,3.1-0.4,5.7-1.2,7.8c-0.8,2-2.1,3.7-3.9,5.1c3.5,2.7,5.5,7,5.8,12.9H485.2z M456,303.7h47.6v-47.6H456V303.7z"/>
	</g>
</g>
</svg>
