<?xml version="1.0" encoding="utf-8"?>
<!-- Generator: Adobe Illustrator 17.1.0, SVG Export Plug-In . SVG Version: 6.00 Build 0)  -->
<!DOCTYPE svg PUBLIC "-//W3C//DTD SVG 1.1//EN" "http://www.w3.org/Graphics/SVG/1.1/DTD/svg11.dtd">
<svg version="1.1" xmlns="http://www.w3.org/2000/svg" xmlns:xlink="http://www.w3.org/1999/xlink" x="0px" y="0px"
	 viewBox="0 0 960 560" enable-background="new 0 0 960 560" xml:space="preserve">
<g id="Layer_1" display="none">
	<g display="inline">
		<defs>
			<rect id="SVGID_1_" x="410.2" y="-19.6" width="140" height="597.9"/>
		</defs>
		<clipPath id="SVGID_2_">
			<use xlink:href="#SVGID_1_"  overflow="visible"/>
		</clipPath>
		<path clip-path="url(#SVGID_2_)" fill="#231F20" d="M525.8,342.9c-0.9,0-1.6-0.1-2.1-0.2V335c0.4-0.1,1.3-0.2,2.4-0.2
			c2.8,0,4.7,1.3,4.7,3.9C530.8,341.4,528.9,342.9,525.8,342.9 M526,332.7c-2.1,0-3.7,0.2-5,0.4v19.8h2.6v-8
			c0.6,0.1,1.3,0.2,2.1,0.2c2.5,0,4.7-0.7,6.1-2.2c1-1,1.5-2.5,1.5-4.3c0-1.8-0.7-3.2-1.8-4.2C530.4,333.3,528.6,332.7,526,332.7"/>
		<path clip-path="url(#SVGID_2_)" fill="#231F20" d="M478.6,251.7c5.7-0.4,10.1-2.9,13.1-7.3c3-4.4,4.5-10.5,4.5-18h-17.5V251.7z"
			/>
		<path clip-path="url(#SVGID_2_)" fill="#231F20" d="M496.2,302.2c-0.9-18.1-6.7-27.3-17.6-27.7v27.7H445v-75.8h-17.5v-28.8h68.6
			v28.8h34.2c0,9.2-1.2,16.9-3.6,22.9c-2.4,6-6.2,11-11.3,14.9c10.3,7.9,16,20.6,17.1,38.1H496.2z M410.2,317.2h140v-140h-140V317.2
			z"/>
	</g>
</g>
<g id="Layer_2">
	<g>
		<defs>
			<rect id="SVGID_3_" x="180.1" y="160.8" width="140" height="140"/>
		</defs>
		<clipPath id="SVGID_4_">
			<use xlink:href="#SVGID_3_"  overflow="visible"/>
		</clipPath>
		<path clip-path="url(#SVGID_4_)" fill="#231F20" d="M248.5,235.3c5.7-0.4,10.1-2.9,13.1-7.3c3-4.4,4.5-10.5,4.5-18h-17.5V235.3z"
			/>
		<path clip-path="url(#SVGID_4_)" fill="#231F20" d="M266.1,285.8c-0.9-18.1-6.7-27.3-17.6-27.7v27.7H215v-75.8h-17.5v-28.8H266
			v28.8h34.2c0,9.2-1.2,16.9-3.6,22.9c-2.4,6-6.2,11-11.3,14.9c10.3,7.9,16,20.6,17.1,38.1H266.1z M180.1,300.7h140v-140h-140V300.7
			z"/>
	</g>
</g>
<g id="Layer_3">
</g>
</svg>
